<?xml version="1.0" encoding="utf-8"?>
<!-- Generator: Adobe Illustrator 24.0.0, SVG Export Plug-In . SVG Version: 6.00 Build 0)  -->
<svg version="1.1" baseProfile="tiny" id="图层_1"
	 xmlns="http://www.w3.org/2000/svg" xmlns:xlink="http://www.w3.org/1999/xlink" x="0px" y="0px" viewBox="0 0 500 500"
	 xml:space="preserve">
<g>
	<g>
		<path d="M21.2,250.2c0.6-53,15.4-101.2,48.3-143.3c26.9-34.6,61.9-58,103.1-72.3c23.1-8,46.9-12.8,71.2-14.1
			c12.2-0.7,24.5,0.7,36.6,2.4c22,3.1,43.3,8.4,63.8,17.1c45.7,19.4,81,50.5,105.6,93.6c16.5,28.9,26.4,60.1,29.6,93.2
			c6,61.6-8.1,117.9-45.9,167.5c-26.9,35.3-62.3,58.8-104,73.3c-20.9,7.2-42.3,11.7-64.3,13.7c-12.7,1.2-25.4,0.1-38.1-1.3
			c-22.8-2.7-45.1-7.7-66.5-16.5C97,437.1,54.9,390.6,33.1,325.6C25,301.2,21.2,276,21.2,250.2z M216.2,246
			c-0.5,0.3-0.9,0.5-1.3,0.7c-2.3,1.6-2.3,1.6-3.1-0.9c-0.1-0.2-0.5-0.4-0.7-0.4c-1.8-0.1-2.7-1.6-3.9-2.7c-0.7-0.6-1.4-1.8-2.6-1.1
			c-2.6,1.4-2.6-0.3-2.8-2.1c-0.2-1.5,0.7-2.8,1.4-4.2c-1.8,0.2-3.7,1.3-4.7-0.4c-1-1.6,1.4-1.1,2-2c-2.1-0.3-4.3,0.5-6.1-1
			c-2.2-1.9-4-2.5-4.9,1.2c-0.2,0.8-0.8,1.1-1.6,1c-0.8-0.2-1-0.8-1.1-1.6c-0.1-0.8,0.4-1.6-1.3-2.8c1.4,2.9-3.7,2.5-1.5,5.3
			c2.4,3.1,1.4,4-2.1,4.2c-2.4,0.1-2,2.3-1.6,3.8c0.5,2,1.7,1.3,2.8,0.3c0.6-0.5,1.2-0.7,1.9-0.2c0.6,0.5,0.1,1.4,0.2,1.8
			c0.7,2-2,5.5,2.5,5.7c2.1,0.1,3.7,0.5,3.9,2.9c0,0.3,0.5,0.8,0.5,0.8c3.6-2,4.4,3.4,7.5,2.8c0.8-0.2,1.7,1.1,0.9,1.7
			c-3.1,2.4-0.1,3.2,1.1,4.2c1.6,1.4,1.8,3,1.2,4.7c-0.8,2-2.8,1.2-4.3,1.2c-2.1,0.1-2.4-1.4-2.4-3.1c0-1.2,0.3-2.8-1.9-1.9
			c-0.7,0.3-1.3-0.3-1.8-0.8c-3.4-2.6-6.1-5.9-9.8-8.1c-0.5-0.3-1-1.1-1.1-1.7c-0.1-2-1.1-2.7-2.8-3.6c-2-1-1.7-4.7-4.6-5.6
			c0,0,0.1-0.7,0.3-0.9c1.1-1.2,0.2-2.2-0.1-3.4c-0.5-1.9-2.1-4.1-1.8-5.5c0.3-1.6,1.2-4.1,3.3-4.9c3.2-1.1,6.3-3.4,9.2-3.9
			c4.5-0.7,8.5-3.9,13.7-2.2c3,0.9,6.3,2.1,9.7,1.9c3.7-0.2,3.3,5.6,7.2,5.5c0.2,0,0.5,0.8,0.6,1.2c0.3,3.1,4.7,3.6,4.4,7.1
			c0,0.1,1,0.3,1.5,0.6c2.4,1.5,5.7,2.4,7,4.6c2,3.5,3.3,6.5,8.2,5.2c1.1-0.3,3.4,1.1,2.9,2.6c-0.8,2.2-2.2-0.4-3.4-0.3
			c-0.2,0-0.4,0.2-0.7,0.4c1.4,1.3,2.2,3.6,4.8,1.8c0.6-0.4,1.3,0.3,1.6,1c0.3,0.7,0.5,1.6,1.4,1.8c1.9,0.5,4.2,1.3,4,3.5
			c-0.2,1.7,0.5,3.9-1.4,5.4c1.6-1.4,3.9-0.3,5.4-2c0.6-0.7,2.2,0.1,1.6,1.2c-0.9,1.6-0.1,2.2,0.9,3c0.8,0.6,1.6,1.2,0.9,2.3
			c-0.5,0.8-1.4,0.8-2.1,0.3c-0.8-0.6-1.2-0.6-1.2,0.5c0,0.9,0.3,1.2,1.3,0.9c2.3-0.7,2.5,0.6,2.4,2.4c-0.1,3,0,3,2.7,4.1
			c0.2-1.3-2.4-1.8-1.2-3.2c1.2-1.4,2.2,0.3,3.4,0.5c3.7,0.6,2.6,3.7,3.3,7.1c0.4-2.5,0.9-4.2,2.8-3c1.6,1,4,2.4,3.5,4.2
			c-0.7,2.4-2.5-1-4.1,0c2.3,2,4.6,4.2,4.4,7.4c-0.1,1.9-2.1,0.5-3.3,1c0.9,1.4,1.4,2.9,1.8,4.4c0.4,1.4,2,2.3,2.1,4.1
			c1-1,2-1.4,2.3-2.6c0.2-0.8,0.5-1.6,1.6-1.5c1.3,0.1,1.1,1.2,1.3,2.1c0.2,1.3-0.7,5.1-1.5,5.9c-0.1,0.1,0,0.2,0,0.6
			c1.1-0.1,3-2.1,3.2,0.1c0.3,3,2.6,4.5,3.9,6.7c1.4,2.3,5,2.8,7.4,2.1c3.4-1,2.9-3.5,2.7-5.8c-0.3-4.1,1.1-7.2,4.9-9.4
			c-0.8-0.5-1.9-0.2-2.2-1.2c-0.3-1.1,0.7-1.4,1.5-1.5c1.3-0.2,0.7-0.7,0.3-1.3c-0.5-1,0.2-1.6,1-1.7c2.2-0.4,2.6-1.2,0.9-2.9
			c-0.6-0.6-0.3-1.5,0.5-1.6c2.2-0.2,2.3-1.8,3-3.5c1-2.1,1.7-4.1,1.9-6.4c0.2-1.7,1.6-3.1,3.3-3.1c1.6,0,5.3-2.2,4.2,2.6
			c2.8,0,0.8,3.9,3.5,4.3c1,0.1,0.7,1.3-0.3,1.7c-1,0.4-2.1,0.2-3-0.3c-2.8-1.6-4.3,0-5.4,2.2c-1.4,3-2,6.1-2.1,9.6
			c0,1.3,1.1,3.3-0.4,4.4c-4.5,3.4-4.7,8.2-4.8,13.2c0,2.2,0.5,4.6-1.5,6.5c-0.8,0.8-0.7,2.3,0.3,3.2c0.9,0.9,1.3,1.9,1.2,3.1
			c-0.3,3.5,2.2,4.8,4.7,6.1c2.1,1.1,4.2,0.6,6.5,0.2c4.1-0.6,7.4-3.1,8.3-7.1c1.2-5,2.5-9.9,2-15.1c-0.1-1.2-0.4-2.8,0.5-3.7
			c2.3-2,0.8-3.1-0.8-4.3c-0.8-0.6-2.1-1.3-1.2-2.4c0.9-1.2,1.8-0.3,2.5,0.5c0.6,0.6,1.6,0.8,2.2,0.2c0.9-0.9-0.1-1.4-0.7-1.9
			c-0.7-0.6-1.1-1.7-2.2-1.5c-3,0.6-4.1-1.5-5.2-3.5c-1.1-1.8-1.3-4.1-2.6-5.9c-0.7-0.9,0.1-2.3,1.5-2.6c1-0.2,2.9-0.1,2.7,0.7
			c-0.7,3.3,0.7,5,3.5,6.1c0.2,0.1,0.3,0.6,0.3,0.9c0.2,1.5,4.4,5,5.7,4.4c3.2-1.6,5.3,0.4,7.9,1.6c4.5,2.1,9.1,3.1,13.9,0.6
			c0.7-0.4,1.8-0.5,1.3-1.6c-0.5-1.2-1.5-0.8-2.2-0.1c-0.6,0.7-1.4,1-2.1,0.3c-0.8-0.8-0.1-1.4,0.4-2.1c0.9-1.1,1.2-2.5,0-3.4
			c-1.1-0.9-2.6-0.8-3.8,0.3c-0.6,0.5-1.2,1-1.9,1.5c-0.7,0.6-1.6,1.3-2.4,0.4c-1-1.1,0.3-1.5,0.8-2.1c0.5-0.6,1.9-1.2,1.1-2.2
			c-1.2-1.6-0.4-3.1,0.2-4.5c-1.8-0.5-2.7,2.2-3.6,1.1c-1.8-2.2-3.1-4.9-4.6-7.4c2.9-2.7-1.3-4.5-0.5-7.3c-1.3,0.7-2,1-2.5,2
			c-1.2,2.6-2.6,5.2-3.9,7.8c-0.4,0.8-0.3,2-1.6,1.8c-1.1-0.2-1.1-1.4-1.1-2.3c0-1,0.2-1.9,0.7-2.9c2.2-4.5,5.5-8.7,4.9-14.2
			c-0.2-1.4-0.6-2.6-2-2.9c-1.4-0.3-2.1,0.7-2.8,2c-1.7,3.2-3.3,6.7-8,6.4c-0.4,0-1.3,0.5-1.3,0.9c-0.5,2.9-3.4,2.4-5.1,3.5
			c-0.8,0.5-2.6,0.8-3-0.6c-0.6-1.8,1.6-1.1,2.4-2.1c-4.7-2.6-2.2-5.7-0.3-8.5c1.2-1.7,1.3-3.3,0.9-5.4c-1.3,0.8-2.3,1.7-3.6-0.3
			c-2.7-4.1-5.9-7.9-9.6-11.1c-5.9-5.2-12.9-8.9-20.1-12c-6.8-2.9-13.5-5.9-20.9-7.4c-2.7-0.5-5.5-0.6-8-1.6
			c-3.8-1.5-7.8-2.2-11.8-3.1c-3.8-0.9-7.7-1.1-11.5-1.7c-12.3-2-24.6-1.1-36.9-0.4c-2.3,0.1-5,0.3-7.4,1.1
			c-5.2,1.8-10.9,2-16.1,4.3c-5.4,2.5-11.3,1.8-17,1.6c-4.6-0.2-9.6,0.2-12.6-4.7c-0.3-0.4-1.1-0.9-1.5-0.7
			c-3.2,1.3-4.5-1.5-6.5-2.8c-4-2.7-6.8-6.9-11-9.4c-0.7-0.4-0.8-1.2-0.2-1.7c1.2-1.1,0.9-1.8,0-3.2c-1.2-2-2.4-4.3-2.6-6.6
			c-0.7-10.6-1.2-21.4,4.1-31.1c3.4-6.2,7.6-11.7,14.9-14.4c6.4-2.4,12.5-5.3,19.6-5.5c8.2-0.1,16.2,0.4,24.1,2.8
			c2.2,0.7,4.1,1.9,6.4,2.2c5.5,0.6,10.7,2.8,15.5,5c6.6,3,13.6,4.4,20.4,5.6c6.7,1.1,13.9,1.4,21.1-1c5.3-1.8,9.7-4.4,13.8-7.9
			c2.7-2.3-0.8-3-1-4.5c-0.2-1.5-1.6-0.8-2.8-0.3c-1.4,0.6-2.5,3.9-4.6,0.7c-0.4-0.6-0.6,0.4-0.7,0.7c-0.5,1-1.4,1-2.3,1.3
			c-4.5,1.3-9.1,0.5-13.7,1.4c-1.8,0.3-3.5,0-4.2-2.1c-0.8,1.8-2.6,2.7-4.2,2c-5.1-2.2-11.6-0.3-15.8-5.4c-0.3-0.3-0.8-0.5-1.2-0.6
			c-4.7-1.2-9.7-1.6-13.8-4.7c-0.8-0.6-2-0.2-2.9,0.4c-1,0.7-2.1,0.9-3.3,0.7c-0.6-0.1-1.2-0.3-1.3-0.9c-0.2-0.6,0.2-1.1,0.9-1.3
			c1.3-0.3,0.7-0.2,0.1-0.8c-3-2.9-7-1.4-10.4-2.9c-2.3-1-5.5-1.9-8-1.3c-3.7,0.9-7,0.5-10.5-0.2c-2.1-0.5-4.3-0.2-6.5,0.1
			c-5.9,0.8-11.2,4.3-17.2,4.6c-0.4,0-1.5-0.3-1.1,0.7c1.1,2.3-1.1,2.9-2.1,3.2c-1.9,0.6-3.5,1.7-5.3,2.5c-4.7,2-8.3,5.3-11.1,9.7
			c-1.8,2.7-2.3,6.3-4.3,8.4c-2.9,3.2-3.6,6.2-3,10.2c0.3,2.4,0.6,5.5-0.6,7.2c-2.5,3.6-2.1,7.7-3,11.5c-0.3,1.1-0.5,2.8,0.1,3.4
			c2.7,2.5,1.7,5.6,1.8,8.4c0.1,1.6,0.4,2.9,1.3,4.4c0.9,1.4,3.1,2.7,2.2,4.8c-0.7,1.6,0.3,1.6,0.9,2.5c1.1,1.5,4,2.9,1.9,5.7
			c2.6-0.2,4.5,0.2,5.5,3c0.5,1.3,2.3,2.6,3.7,2.9c3,0.7,4,5.1,7.9,4c0.1,0,0.7,0.6,0.6,0.7c-1.1,2.4,1.4,2.5,2.3,3.1
			c2,1.3,4.9,1.4,5.8,4.3c0.2,0.6,0.7,0.2,1.1,0c2-1,4.1-0.5,6.1-0.6c1.2,0,2.7-0.2,3.3,1.2c0.7,1.6-0.5,2.5-1.5,3.5
			c-1.6,1.7-3.6,3.5-1.9,6.4c0.6,1,0.5,2.5-0.3,3.3c-1.7,1.8-1.4,4-1.5,6.2c-0.2,2.4-0.1,4.9-0.9,7.1c-1.5,4-1.8,8-0.1,11.9
			c0.8,1.9,0.5,2.6-1.3,2.8c-2.8,0.4-4.3,3-4,4.8c0.5,3.3-1.4,3.8-3.4,4.3c-2.2,0.6-1.9,2.8-2.7,4.1c-0.6,1.1-3.7,5.6-4.8,5.2
			c-1.4-0.6-1.4,0.2-2.2,0.9c-1.8,1.7-2.9,5-6.6,3.4c-0.7-0.3-3,1.1-1.8,2.4c2.3,2.6-0.4,3.9-1.1,5.3c-1,2-2.5-1-3.9-0.4
			c0.6,2.7-0.9,4.9-3.3,4.2c-2.6-0.8-1.7,1.3-1.4,1.6c1.8,1.8,1.4,3.1-0.5,4.4c-0.4,0.3-0.8,0.8-0.4,1.5c1.2,1.9,0.9,4.1,0.7,6.1
			c-0.2,2.2,1.9,3.6,1.6,5.5c-0.3,2.5,0.6,3.4,3,3c0.2,0,0.8,1,0.7,1.4c-0.5,4.4,2.6,5.6,5.9,6.8c3,1.1,10.2,0.4,13.1-3.2
			c-3.4-0.5-7.1-0.5-8.8-4.1c-2.6-5.6-3.7-11.6-3.1-17.8c0.1-1.2,1.2-2.1,2.2-2.5c6-2.1,11.7-5.1,17.9-6.7c8.6-2.3,17.1-4.6,23.9-11
			c1.5-1.5,2-2.4,0.3-3.7c-2.2-1.7-1.9-4.3-1.1-6c1.3-3.1-0.3-5-1.6-7.3c-3.6-6.2-8.4-11.9-8.2-19.7c0-0.9-0.7-1.4-1-2.1
			c-0.9-2-2.6-4.7-1.9-6.3c0.7-1.8,0.9-2.5-0.3-4c-0.6-0.7-0.7-2.2,0.5-2.7c1.4-0.7,1.5,0.7,2.2,1.5c1.3,1.6,1.3,4.8,2.5,5.3
			c3.5,1.2,3,3.6,3,6.1c0,1.7,0.9,2.9,2.1,3.8c1.2,0.9,2.1,2.2,1.3,3.2c-2.6,3.4,0.5,5.7,1.4,8.3c0.4,1.2,0.8,3.3,3.1,3.2
			c3.2-0.2,4.2,0.9,1.2,4.1c2.7-1.8,3.5-0.7,4.4,1.2c0.7,1.5,2.3,4.2,4.1,2.5c2.4-2.2,2.3-0.9,3.2,1c1.6,3.2,0.9,7,3.3,9.9
			c1,1.2,3.1,3,0.6,5c-0.2,0.1-0.1,0.7,0,1c1.6,2.6-0.4,5.9,1.5,8.5c0.2,0.2,0.1,0.8-0.1,1c-3.1,3.3-1.1,8.2-3.4,11.8
			c-0.4,0.5,0.2,1,0.5,1.5c3.1,5,7.4,9,9.4,14.9c2.1,6.1,7.7,9.5,13.9,10.8c2.3,0.5,7.4-0.4,7.2-1.9c-0.5-4,2.5-2.6,4.7-3.7
			c-6.4-0.5-11.3-2-15-6.5c-2-2.4-3.8-5-4.9-7.7c-1.1-2.9-3.3-6.3-1.7-9.6c2.6-5.4,3.9-11.3,7.6-16.2c2.2-2.9,3-6.5,4.3-9.8
			c1.8-4.4,1.5-8.9,0.4-13.1c-0.6-2-1.4-4-1.4-6.1c0-1.6-0.2-3.1-1.2-4.5c-1.2-1.8-1.2-4.2-0.1-5.9c1.1-1.7,3.4-1.5,4.8-0.7
			c4.4,2.6,9.4,3.7,13.4,7.5c2.9,2.8,5.1,6,8.1,8.7c2.8,2.5,5.3,5.4,7.4,8.4c2.9,4,6.7,7.1,10,10.6c3.1,3.4,7.7,5.6,11.6,8.3
			c5.7,3.9,12.4,6.1,18.8,8.9c1,0.4,1.8,0.9,1.7,1.9c-0.4,3.8,1.3,7.1,2.1,10.6c0.3,1.4,0.5,1.9,2.1,1.6c2.6-0.4,4.6,0.7,4.7,3.5
			c0.1,1.1,0.8,1.4,1.1,1.1c2.4-3.1,6.9-0.6,9.4-3.5c0.7-0.8,1.5-1.4,2.4-2c3.3-2.7,3.2-3.8,0.1-6.7c-2.7-2.5-5.9-4.2-9.1-5.3
			c-3.4-1.2-4.6-5.4-8.6-5.3c-0.3,0-1-0.8-1-0.8c1.9-2.7-1.2-2.4-2-3.2c-3.4-3.4-7.1-6.4-12.1-7.2c-0.8-0.1-1.1-0.8-1.3-1.5
			c-0.3-1.1-1-2.4-1.8-2.4c-2.9,0-4.5-3.8-7.8-2.4c-0.8,0.4-1.6-0.4-1.4-1.4c0.7-3.6-1.1-5.5-4.3-6.6c-2.1-0.7-3.7-1.9-3.6-4.5
			c0.1-1.6-1.3-2.3-2-3.4c-1.4-2.2-6.6-2.7-3.7-7.2c-3.2,1.3-5.1,0.2-4.9-2.6c0-0.7,0.2-1-0.6-1c-1.5-0.1-2-1-1.9-2.4
			c0.1-1.7,1.5-1.8,2.8-2.3c-3.1-0.2-4.5-3.4-7.5-3.6c-0.2,0-0.6-0.7-0.5-0.8c1.3-2.1-0.8-2.9-1.6-4.2c-0.8-1.2-2.1-2.6-2-3.8
			c0.2-2.8-2.8-2.5-3.4-4.3c-1.1,0.5-2.1,0.7-2.5-0.8c-0.4-1.3,0.5-2.1,1.3-3C215.1,247.9,216.2,247.5,216.2,246z M360.6,291.4
			c-0.9-0.6-2.6-0.1-2.4-1.6c0.2-1.4,1.6-1,2.6-1.1c2.9-0.3,4.4-1.9,4.4-4.8c0-4.4-2.5-7.5-5.9-9.5c-2.3-1.3-3.3-2.5-4.1-5
			c-0.6-2-0.6-2.7,0.7-3.9c2-1.8,2.4,0.7,3.6,1.1c1,0.3,0.5,2.4,2.1,1.7c1.3-0.6,1.2-2,1.5-3.2c1.2-5.2-2.9-7.8-5.4-11.2
			c-1.3-1.7-3-3.1-5.2-3.8c-5-1.6-9.9-3.2-14.9-4.7c-1.6-0.5-3.8-0.9-5,0.2c-2.5,2.2-6.2,2.5-8.2,5.4c-1.1,1.5-4.1,1.9-3.3,4.2
			c0.8,2.4,3.6,2.3,5.7,3c0.2,0.1,0.5,0,0.7,0c3.6,0.5,6.5,3.9,6.6,7.5c0,2.1-0.3,4.3,0.4,6.2c1.3,3.4,5.3,5.4,5.4,9.6
			c0,0.2,0.7,0.6,1.1,0.6c3.4-0.3,5.5,2.1,7.8,3.9c1.1,0.8,2.3,1.4,1.6,3.6c-0.5,1.4,0.8,4.9,2.5,4.4
			C355.6,293.5,358.9,294.4,360.6,291.4z M305.3,340.3c2.8,6.3,4.5,7.3,9,4.9c1.1-0.6,1.9-1.5,3-0.3c0.9,1,2.8,1.7,1.2,4.2
			c2.9-2.9,4.5-0.9,6.2,0.7c0.9,0.9,1.9,1.9,3.1,2.2c5.2,1.2,9.1,6.2,15.1,5.2c0.1,0,0.2,0.1,0.3,0.1c6.4,3,13.3,3.9,20.2,4.4
			c2,0.1,3.8,0.3,5.7,1.2c1.8,0.9,3.8,1.6,5-1.2c0.3-0.8,1.2-1.7,2.5-1.6c0.7,0,1.2,1.8,1.8,0.3c0.4-1,0.2-2.2-1-2.7
			c-3-1.3-6-3.3-9-3.5c-2.3-0.2-4.4-0.4-6.6-1.2c-9-3.4-17.4-7.7-24.9-13.9c-3.5-2.9-8.3-5.2-8.8-10.3c-0.4-3.6-3.1-6.2-2.4-10.2
			c-2.5,2.4,0.4,4.7-0.9,6.3c-1.8,2-1.5,4.2-1.6,6.5c-0.1,1.2,0,2.5-1.7,2.5c-2.7,0-2.9,0.3-2.5,3.3c0.3,2.1-0.3,3.7-2.6,3.2
			C312.5,339.3,309.1,341.2,305.3,340.3z M237.6,353.5c6.2,3.6,12,5.8,18.4,6.2c1.4,0.1,3.4-0.5,4,0.6c2.3,4.4,4.1,1.7,6.2,0
			c0.6-0.5,1.7-0.5,2.6-0.6c1.2-0.1,2.3-0.2,3.3-0.9c5.7-3.5,10.9-7.5,15.7-12.2c0.7-0.7,2.9-1.2,1.5-2.8c-0.9-1.1-2.6-0.9-3.8,0.1
			c-2.1,1.7-4.3,1.5-6.5,0.5c-0.7-0.3-1.1-0.5-1.8,0c-1.6,1.1-3,0.6-4.4-0.5c-1.6-1.2-3.5-0.6-5.3-0.3c1.5,3.5-2,2.9-3.3,3.7
			c-4.8,3-10.4,5-15.7,4.7C244.9,352,241.8,352.5,237.6,353.5z M254,150.4c4.1-3.4,4.2-7.7,4.2-12.3c0-5.8-5-9.1-9.6-9.8
			c-1.6-0.2-3.4-0.2-3,2.4c0.3,1.7-0.7,2.1-2.1,1.6c-2.2-0.7-3,0.5-3.1,2.4c-0.1,1.9,0,3.8,0,6.4c3.2-2,2.2-6.8,6.2-6.9
			c1.5-5.2,3.1-0.6,4.6-0.1c0.6,0.2-0.1,2,1.3,1.2c0.9-0.5,2.1-0.9,2.4,0.1c0.4,1.5,0.6,3.3,0,4.6c-0.6,1.5-2.1,0-3.2-0.1
			c-0.3,1.5,2.1,1.9,1.3,2.6C250.2,145.6,252.4,147.8,254,150.4z"/>
	</g>
</g>
</svg>
